<svg width="16" height="16" viewBox="0 0 16 16" fill="none" xmlns="http://www.w3.org/2000/svg">
<path fill-rule="evenodd" clip-rule="evenodd" d="M3.39974 1.33427C3.92032 0.81326 4.76474 0.813024 5.28561 1.33375L7.74744 3.79487C8.26811 4.31539 8.26835 5.15942 7.74796 5.68023L6.87538 6.55353L9.71158 9.38928L10.5836 8.51655C11.1042 7.99554 11.9486 7.9953 12.4695 8.51603L14.6666 10.7125C15.1872 11.233 15.1875 12.077 14.6671 12.5979L13.2137 14.0525C12.3615 14.9054 11.0496 15.0957 9.99016 14.5202C6.39188 12.5654 3.43607 9.60999 1.4804 6.01228C0.904815 4.95341 1.09416 3.64176 1.94613 2.78908L3.39974 1.33427ZM6.80476 4.73781L4.34293 2.27669L2.88933 3.7315C2.45489 4.1663 2.35823 4.83534 2.65185 5.37549C4.48459 8.74708 7.25463 11.5167 10.6266 13.3486C11.1669 13.6421 11.8359 13.545 12.2705 13.1101L13.7239 11.6554L11.5268 9.45897L9.71205 11.2752L4.99008 6.554L6.80476 4.73781Z" fill="#F5841F"/>
</svg>
