<svg width="170" height="41" viewBox="0 0 170 41" fill="none" xmlns="http://www.w3.org/2000/svg">
<path fill-rule="evenodd" clip-rule="evenodd" d="M20.6836 40.1379C31.7293 40.1379 40.6836 31.1836 40.6836 20.1379C40.6836 9.09225 31.7293 0.137939 20.6836 0.137939C9.63788 0.137939 0.683594 9.09225 0.683594 20.1379C0.683594 31.1836 9.63788 40.1379 20.6836 40.1379ZM26.9229 9.45478C27.2266 8.37599 26.1797 7.73807 25.2236 8.41924L11.8767 17.9275C10.8398 18.6662 11.0029 20.1379 12.1217 20.1379H15.6363V20.1107H22.4861L16.9048 22.08L14.4443 30.8211C14.1406 31.8999 15.1874 32.5378 16.1436 31.8566L29.4905 22.3484C30.5274 21.6097 30.3642 20.1379 29.2455 20.1379H23.9157L26.9229 9.45478Z" fill="#F5841F"/>
<path d="M51.6836 26.5938H63.6356V22.9938H55.9316V9.43384H51.6836V26.5938Z" fill="#340E0E"/>
<path d="M70.717 24.1937C69.013 24.1937 68.125 22.7057 68.125 20.4737C68.125 18.2417 69.013 16.7297 70.717 16.7297C72.421 16.7297 73.333 18.2417 73.333 20.4737C73.333 22.7057 72.421 24.1937 70.717 24.1937ZM70.741 26.9777C74.701 26.9777 77.293 24.1697 77.293 20.4737C77.293 16.7777 74.701 13.9697 70.741 13.9697C66.805 13.9697 64.165 16.7777 64.165 20.4737C64.165 24.1697 66.805 26.9777 70.741 26.9777Z" fill="#340E0E"/>
<path d="M84.1468 30.8418C85.9708 30.8418 87.5788 30.4338 88.6588 29.4738C89.6428 28.5858 90.2908 27.2418 90.2908 25.3938V14.3058H86.5468V15.6258H86.4988C85.7788 14.5938 84.6748 13.9458 83.0428 13.9458C79.9948 13.9458 77.8828 16.4898 77.8828 20.0898C77.8828 23.8578 80.4508 25.9218 83.2108 25.9218C84.6988 25.9218 85.6348 25.3218 86.3548 24.5058H86.4508V25.7298C86.4508 27.2178 85.7548 28.0818 84.0988 28.0818C82.8028 28.0818 82.1548 27.5298 81.9388 26.8818H78.1468C78.5308 29.4498 80.7628 30.8418 84.1468 30.8418ZM84.1228 23.0178C82.6588 23.0178 81.6988 21.8178 81.6988 19.9698C81.6988 18.0978 82.6588 16.8978 84.1228 16.8978C85.7548 16.8978 86.6188 18.2898 86.6188 19.9458C86.6188 21.6738 85.8268 23.0178 84.1228 23.0178Z" fill="#340E0E"/>
<path d="M97.9895 24.1937C96.2855 24.1937 95.3975 22.7057 95.3975 20.4737C95.3975 18.2417 96.2855 16.7297 97.9895 16.7297C99.6935 16.7297 100.605 18.2417 100.605 20.4737C100.605 22.7057 99.6935 24.1937 97.9895 24.1937ZM98.0135 26.9777C101.974 26.9777 104.565 24.1697 104.565 20.4737C104.565 16.7777 101.974 13.9697 98.0135 13.9697C94.0775 13.9697 91.4375 16.7777 91.4375 20.4737C91.4375 24.1697 94.0775 26.9777 98.0135 26.9777Z" fill="#340E0E"/>
<path d="M105.707 26.5938H109.619V14.3058H105.707V26.5938ZM105.707 12.6018H109.619V9.43384H105.707V12.6018Z" fill="#340E0E"/>
<path d="M111.318 30.6498H115.23V25.3218H115.278C116.046 26.3538 117.174 26.9778 118.758 26.9778C121.974 26.9778 124.11 24.4338 124.11 20.4498C124.11 16.7538 122.118 13.9458 118.854 13.9458C117.174 13.9458 115.974 14.6898 115.134 15.7938H115.062V14.3058H111.318V30.6498ZM117.75 23.9538C116.07 23.9538 115.11 22.5858 115.11 20.5938C115.11 18.6018 115.974 17.0898 117.678 17.0898C119.358 17.0898 120.15 18.4818 120.15 20.5938C120.15 22.6818 119.238 23.9538 117.75 23.9538Z" fill="#340E0E"/>
<path d="M130.479 26.9778C133.695 26.9778 136.071 25.5858 136.071 22.8978C136.071 19.7538 133.527 19.2018 131.367 18.8418C129.807 18.5538 128.415 18.4338 128.415 17.5698C128.415 16.8018 129.159 16.4418 130.119 16.4418C131.199 16.4418 131.943 16.7778 132.087 17.8818H135.687C135.495 15.4578 133.623 13.9458 130.143 13.9458C127.239 13.9458 124.839 15.2898 124.839 17.8818C124.839 20.7618 127.119 21.3378 129.255 21.6978C130.887 21.9858 132.375 22.1058 132.375 23.2098C132.375 24.0018 131.631 24.4338 130.455 24.4338C129.159 24.4338 128.343 23.8338 128.199 22.6098H124.503C124.623 25.3218 126.879 26.9778 130.479 26.9778Z" fill="#340E0E"/>
<path d="M141.384 26.9539C143.088 26.9539 144.168 26.2819 145.056 25.0819H145.128V26.5939H148.872V14.3059H144.96V21.1699C144.96 22.6339 144.144 23.6419 142.8 23.6419C141.552 23.6419 140.952 22.8979 140.952 21.5539V14.3059H137.064V22.3699C137.064 25.1059 138.552 26.9539 141.384 26.9539Z" fill="#340E0E"/>
<path d="M150.574 26.5938H154.486V19.7058C154.486 18.2418 155.206 17.2098 156.43 17.2098C157.606 17.2098 158.158 17.9778 158.158 19.2978V26.5938H162.07V19.7058C162.07 18.2418 162.766 17.2098 164.014 17.2098C165.19 17.2098 165.742 17.9778 165.742 19.2978V26.5938H169.654V18.6018C169.654 15.8418 168.262 13.9458 165.478 13.9458C163.894 13.9458 162.574 14.6178 161.614 16.1058H161.566C160.942 14.7858 159.718 13.9458 158.11 13.9458C156.334 13.9458 155.158 14.7858 154.39 16.0578H154.318V14.3058H150.574V26.5938Z" fill="#340E0E"/>
</svg>
