<svg width="140" height="140" viewBox="0 0 140 140" fill="none" xmlns="http://www.w3.org/2000/svg">
<circle cx="70" cy="70" r="70" fill="#16213C"/>
<g clip-path="url(#clip0_307_1141)">
<path d="M71.2496 65C71.2496 60.875 67.8746 57.5 63.7496 57.5C59.6246 57.5 56.2496 60.875 56.2496 65C56.2496 69.125 59.6246 72.5 63.7496 72.5C67.8746 72.5 71.2496 69.125 71.2496 65ZM63.7496 67.5C62.3746 67.5 61.2496 66.375 61.2496 65C61.2496 63.625 62.3746 62.5 63.7496 62.5C65.1246 62.5 66.2496 63.625 66.2496 65C66.2496 66.375 65.1246 67.5 63.7496 67.5ZM79.9996 72.5C82.7746 72.5 84.9996 70.275 84.9996 67.5C84.9996 64.725 82.7746 62.5 79.9996 62.5C77.2246 62.5 74.9746 64.725 74.9996 67.5C74.9996 70.275 77.2246 72.5 79.9996 72.5ZM69.9746 45.025C56.1746 45.025 44.9746 56.225 44.9746 70.025C44.9746 83.825 56.1746 95.025 69.9746 95.025C83.7746 95.025 94.9746 83.825 94.9746 70.025C94.9746 56.225 83.7746 45.025 69.9746 45.025ZM54.5996 82.8C56.2996 81.45 60.2746 80.025 63.7496 80.025C63.9246 80.025 64.1246 80.05 64.3246 80.05C64.9246 78.45 65.9996 76.825 67.5746 75.4C66.3133 75.1584 65.0337 75.0246 63.7496 75C60.4996 75 55.2746 76.125 51.9246 78.575C50.6746 75.975 49.9746 73.075 49.9746 70C49.9746 58.975 58.9496 50 69.9746 50C80.9996 50 89.9746 58.975 89.9746 70C89.9746 73 89.2996 75.85 88.0996 78.425C85.5996 76.95 82.1996 76.25 79.9996 76.25C76.1996 76.25 68.7496 78.275 68.7496 83V89.95C66.0262 89.7952 63.364 89.0803 60.9293 87.85C58.4946 86.6198 56.3399 84.9007 54.5996 82.8Z" fill="#8ECAE6"/>
</g>
<defs>
<clipPath id="clip0_307_1141">
<rect width="60" height="60" fill="white" transform="translate(40 40)"/>
</clipPath>
</defs>
</svg>
