<svg width="943" height="49" viewBox="0 0 943 49" fill="none" xmlns="http://www.w3.org/2000/svg">
<g clip-path="url(#clip0_110_212)">
<path d="M272.86 31.138H284.812V27.538H277.108V13.978H272.86V31.138Z" fill="#340E0E"/>
<path d="M291.893 28.738C290.189 28.738 289.301 27.25 289.301 25.018C289.301 22.786 290.189 21.274 291.893 21.274C293.597 21.274 294.509 22.786 294.509 25.018C294.509 27.25 293.597 28.738 291.893 28.738ZM291.917 31.522C295.877 31.522 298.469 28.714 298.469 25.018C298.469 21.322 295.877 18.514 291.917 18.514C287.981 18.514 285.341 21.322 285.341 25.018C285.341 28.714 287.981 31.522 291.917 31.522Z" fill="#340E0E"/>
<path d="M305.324 35.386C307.148 35.386 308.756 34.978 309.836 34.018C310.82 33.13 311.468 31.786 311.468 29.938V18.85H307.724V20.17H307.676C306.956 19.138 305.852 18.49 304.22 18.49C301.172 18.49 299.06 21.034 299.06 24.634C299.06 28.402 301.628 30.466 304.388 30.466C305.876 30.466 306.812 29.866 307.532 29.05H307.628V30.274C307.628 31.762 306.932 32.626 305.276 32.626C303.98 32.626 303.332 32.074 303.116 31.426H299.324C299.708 33.994 301.94 35.386 305.324 35.386ZM305.3 27.562C303.836 27.562 302.876 26.362 302.876 24.514C302.876 22.642 303.836 21.442 305.3 21.442C306.932 21.442 307.796 22.834 307.796 24.49C307.796 26.218 307.004 27.562 305.3 27.562Z" fill="#340E0E"/>
<path d="M319.166 28.738C317.462 28.738 316.574 27.25 316.574 25.018C316.574 22.786 317.462 21.274 319.166 21.274C320.87 21.274 321.782 22.786 321.782 25.018C321.782 27.25 320.87 28.738 319.166 28.738ZM319.19 31.522C323.15 31.522 325.742 28.714 325.742 25.018C325.742 21.322 323.15 18.514 319.19 18.514C315.254 18.514 312.614 21.322 312.614 25.018C312.614 28.714 315.254 31.522 319.19 31.522Z" fill="#340E0E"/>
<path d="M326.884 31.138H330.796V18.85H326.884V31.138ZM326.884 17.146H330.796V13.978H326.884V17.146Z" fill="#340E0E"/>
<path d="M332.494 35.194H336.406V29.866H336.454C337.222 30.898 338.35 31.522 339.934 31.522C343.15 31.522 345.286 28.978 345.286 24.994C345.286 21.298 343.294 18.49 340.03 18.49C338.35 18.49 337.15 19.234 336.31 20.338H336.238V18.85H332.494V35.194ZM338.926 28.498C337.246 28.498 336.286 27.13 336.286 25.138C336.286 23.146 337.15 21.634 338.854 21.634C340.534 21.634 341.326 23.026 341.326 25.138C341.326 27.226 340.414 28.498 338.926 28.498Z" fill="#340E0E"/>
<path d="M351.655 31.522C354.871 31.522 357.247 30.13 357.247 27.442C357.247 24.298 354.703 23.746 352.543 23.386C350.983 23.098 349.591 22.978 349.591 22.114C349.591 21.346 350.335 20.986 351.295 20.986C352.375 20.986 353.119 21.322 353.263 22.426H356.863C356.671 20.002 354.799 18.49 351.319 18.49C348.415 18.49 346.015 19.834 346.015 22.426C346.015 25.306 348.295 25.882 350.431 26.242C352.063 26.53 353.551 26.65 353.551 27.754C353.551 28.546 352.807 28.978 351.631 28.978C350.335 28.978 349.519 28.378 349.375 27.154H345.679C345.799 29.866 348.055 31.522 351.655 31.522Z" fill="#340E0E"/>
<path d="M362.561 31.498C364.265 31.498 365.345 30.826 366.233 29.626H366.305V31.138H370.049V18.85H366.137V25.714C366.137 27.178 365.321 28.186 363.977 28.186C362.729 28.186 362.129 27.442 362.129 26.098V18.85H358.241V26.914C358.241 29.65 359.729 31.498 362.561 31.498Z" fill="#340E0E"/>
<path d="M371.75 31.138H375.662V24.25C375.662 22.786 376.382 21.754 377.606 21.754C378.782 21.754 379.334 22.522 379.334 23.842V31.138H383.246V24.25C383.246 22.786 383.942 21.754 385.19 21.754C386.366 21.754 386.918 22.522 386.918 23.842V31.138H390.83V23.146C390.83 20.386 389.438 18.49 386.654 18.49C385.07 18.49 383.75 19.162 382.79 20.65H382.742C382.118 19.33 380.894 18.49 379.286 18.49C377.51 18.49 376.334 19.33 375.566 20.602H375.494V18.85H371.75V31.138Z" fill="#340E0E"/>
<path fill-rule="evenodd" clip-rule="evenodd" d="M241.684 43.138C252.729 43.138 261.684 34.1837 261.684 23.138C261.684 12.0924 252.729 3.13806 241.684 3.13806C230.638 3.13806 221.684 12.0924 221.684 23.138C221.684 34.1837 230.638 43.138 241.684 43.138ZM247.923 12.4549C248.227 11.3761 247.18 10.7382 246.224 11.4194L232.877 20.9276C231.84 21.6663 232.003 23.138 233.122 23.138H236.636V23.1108H243.486L237.905 25.0801L235.444 33.8212C235.141 34.9 236.187 35.5379 237.144 34.8567L250.491 25.3485C251.527 24.6098 251.364 23.138 250.246 23.138H244.916L247.923 12.4549Z" fill="#F15757"/>
</g>
<path fill-rule="evenodd" clip-rule="evenodd" d="M72.6753 8.40747C74.0631 7.01977 76.3132 7.01977 77.701 8.40747C79.0888 9.79527 79.0888 12.0453 77.701 13.4331L69.2401 21.894C66.8109 18.6384 67.0747 14.0082 70.0317 11.0512L72.6753 8.40747Z" fill="#4F9E91"/>
<path fill-rule="evenodd" clip-rule="evenodd" d="M84.7713 27.4967C86.1593 28.8844 86.1593 31.1345 84.7713 32.5222C83.3843 33.91 81.1339 33.91 79.7461 32.5222L71.2852 24.0614C74.5408 21.6322 79.171 21.896 82.128 24.853L84.7713 27.4967Z" fill="#EBE1C5"/>
<path fill-rule="evenodd" clip-rule="evenodd" d="M65.6826 39.5924C64.2949 40.9802 62.0448 40.9802 60.6571 39.5924C59.2693 38.2046 59.2693 35.9546 60.6571 34.5668L69.1179 26.106C71.5471 29.3616 71.2833 33.9918 68.3263 36.9487L65.6826 39.5924Z" fill="#EBCC6E"/>
<path fill-rule="evenodd" clip-rule="evenodd" d="M53.5867 20.5032C52.1989 19.1154 52.1989 16.8654 53.5867 15.4776C54.9745 14.0898 57.2245 14.0898 58.6123 15.4776L67.0732 23.9385C63.8176 26.3677 59.1874 26.1038 56.2305 23.1469L53.5867 20.5032Z" fill="#ED834E"/>
<path fill-rule="evenodd" clip-rule="evenodd" d="M70.7852 38.5562C72.8315 36.281 73.7826 33.3697 73.6383 30.5033L77.7017 34.5667C77.7118 34.5768 77.722 34.5869 77.7322 34.597V37.498C77.7322 39.4606 76.1412 41.0516 74.1786 41.0516C72.5845 41.0516 71.2356 40.002 70.7852 38.5562Z" fill="#ED834E"/>
<path fill-rule="evenodd" clip-rule="evenodd" d="M54.6224 25.6058C56.8975 27.6522 59.8088 28.6033 62.6752 28.459L58.6119 32.5224C58.6017 32.5325 58.5916 32.5427 58.5816 32.5528H55.6806C53.718 32.5529 52.127 30.9618 52.127 28.9992C52.127 27.4052 53.1766 26.0562 54.6224 25.6058Z" fill="#4F9E91"/>
<path fill-rule="evenodd" clip-rule="evenodd" d="M83.7352 22.3942C81.4603 20.3478 78.549 19.3967 75.6826 19.5409L79.7459 15.4776C79.7561 15.4675 79.7661 15.4573 79.7762 15.4471H82.6773C84.6402 15.4471 86.2312 17.0382 86.2312 19.0008C86.2312 20.5949 85.1812 21.9438 83.7352 22.3942Z" fill="#EBCC6E"/>
<path fill-rule="evenodd" clip-rule="evenodd" d="M67.573 9.44362C65.5266 11.7187 64.5756 14.63 64.7198 17.4965L60.6565 13.4331C60.6463 13.423 60.6362 13.4129 60.626 13.4028V10.5018C60.626 8.53922 62.217 6.94812 64.1796 6.94812C65.7737 6.94812 67.1226 7.99782 67.573 9.44362Z" fill="#EBE1C5"/>
<path fill-rule="evenodd" clip-rule="evenodd" d="M64.18 4.05701C60.6206 4.05701 57.7351 6.94251 57.7351 10.5019V11.7554C55.5937 11.1959 53.2205 11.7551 51.5424 13.4332C49.0255 15.9501 49.0255 20.0308 51.5424 22.5477L52.4287 23.434C50.5189 24.5526 49.2363 26.6261 49.2363 28.9992C49.2363 32.5586 52.1218 35.4441 55.6812 35.4441H56.9346C56.3751 37.5855 56.9343 39.9587 58.6124 41.6367C61.1293 44.1536 65.21 44.1536 67.7269 41.6367L70.3705 38.9931C72.7026 36.661 73.7918 33.5566 73.6381 30.5032L77.7016 34.5666C80.2185 37.0835 84.2993 37.0835 86.8163 34.5666C89.3333 32.0497 89.3333 27.969 86.8163 25.4522L85.9303 24.566C87.8393 23.4474 89.1223 21.3739 89.1223 19.0008C89.1223 15.4414 86.2363 12.5559 82.6773 12.5559H81.4238C81.9834 10.4144 81.4241 8.04121 79.746 6.36311C77.2292 3.84621 73.1485 3.84621 70.6316 6.36311L67.9879 9.00681C65.6558 11.3389 64.5666 14.4432 64.7203 17.4966L60.6569 13.4332C60.6467 13.4231 60.6366 13.413 60.6264 13.4029V10.5019C60.6264 8.53931 62.2174 6.94831 64.18 6.94831C65.7741 6.94831 67.123 7.99791 67.5734 9.44371C67.7069 9.29531 67.845 9.14961 67.9878 9.00681L69.7452 7.24941C68.6266 5.33961 66.5531 4.05701 64.18 4.05701ZM79.7763 15.4472C79.7662 15.4573 79.7562 15.4675 79.746 15.4776L75.6827 19.5409C78.5492 19.3967 81.4604 20.3477 83.7353 22.3942C85.1813 21.9438 86.2313 20.5948 86.2313 19.0008C86.2313 17.0382 84.6403 15.4472 82.6773 15.4472H79.7763ZM58.582 32.5528C58.5921 32.5426 58.6022 32.5324 58.6124 32.5223L62.6757 28.4589C59.8093 28.6032 56.8981 27.6521 54.623 25.6058C53.1772 26.0562 52.1275 27.4051 52.1275 28.9992C52.1275 30.9618 53.7186 32.5528 55.6812 32.5528H58.582ZM54.5122 25.5048C54.4019 25.4029 54.2932 25.2984 54.1861 25.1913V25.1914C54.2932 25.2985 54.4019 25.4029 54.5122 25.5048ZM74.1785 43.943C71.8053 43.943 69.7318 42.6603 68.6132 40.7505L70.3705 38.9931C70.5134 38.8503 70.6515 38.7046 70.785 38.5562C71.2354 40.002 72.5843 41.0517 74.1785 41.0517C76.1411 41.0517 77.7321 39.4607 77.7321 37.4981V34.5971C78.5649 35.419 79.5659 35.9682 80.6234 36.2445V37.4981C80.6234 41.0575 77.7379 43.943 74.1785 43.943ZM77.7016 8.40751C76.3138 7.01981 74.0638 7.01981 72.676 8.40751L70.0323 11.0512C67.0754 14.0082 66.8115 18.6384 69.2407 21.894L77.7016 13.4331C79.0894 12.0453 79.0894 9.79531 77.7016 8.40751ZM84.7713 32.5222C86.1593 31.1344 86.1593 28.8844 84.7713 27.4966L82.1279 24.8529C79.171 21.896 74.5407 21.6321 71.2851 24.0613L79.746 32.5222C81.1338 33.91 83.3843 33.91 84.7713 32.5222ZM65.6824 39.5923C64.2946 40.9801 62.0446 40.9801 60.6568 39.5923C59.2691 38.2045 59.2691 35.9545 60.6568 34.5667L69.1177 26.1058C71.5469 29.3614 71.283 33.9917 68.3261 36.9486L65.6824 39.5923ZM53.5868 15.4776C52.1991 16.8654 52.1991 19.1154 53.5868 20.5032L56.2305 23.1469C59.1875 26.1038 63.8177 26.3677 67.0733 23.9385L58.6124 15.4776C57.2246 14.0899 54.9746 14.0899 53.5868 15.4776Z" fill="#3D3A2C"/>
<path d="M1.53223 17.0898H4.69283V26.911H10.1212V29.5716H1.53223V17.0898Z" fill="#3D3A2C"/>
<path d="M15.8598 29.8394C14.8003 29.8394 13.8717 29.6489 13.0741 29.268C12.2765 28.8751 11.6575 28.3394 11.217 27.6609C10.7885 26.9704 10.5742 26.1788 10.5742 25.2859C10.5742 24.3931 10.7885 23.6074 11.217 22.9289C11.6575 22.2384 12.2765 21.7027 13.0741 21.3218C13.8717 20.9289 14.8003 20.7325 15.8598 20.7325C16.9193 20.7325 17.8478 20.9289 18.6454 21.3218C19.443 21.7027 20.0561 22.2384 20.4846 22.9289C20.9251 23.6074 21.1453 24.3931 21.1453 25.2859C21.1453 26.1788 20.9251 26.9704 20.4846 27.6609C20.0561 28.3394 19.443 28.8751 18.6454 29.268C17.8478 29.6489 16.9193 29.8394 15.8598 29.8394ZM15.8598 27.393C16.4907 27.393 16.9907 27.2085 17.3597 26.8395C17.7407 26.4585 17.9311 25.9407 17.9311 25.2859C17.9311 24.6312 17.7407 24.1193 17.3597 23.7503C16.9907 23.3693 16.4907 23.1789 15.8598 23.1789C15.2288 23.1789 14.7229 23.3693 14.342 23.7503C13.9729 24.1193 13.7884 24.6312 13.7884 25.2859C13.7884 25.9407 13.9729 26.4585 14.342 26.8395C14.7229 27.2085 15.2288 27.393 15.8598 27.393Z" fill="#3D3A2C"/>
<path d="M27.049 33.6786C26.4776 33.6786 25.9002 33.625 25.3169 33.5179C24.7455 33.4107 24.2513 33.2679 23.8347 33.0893V30.9108C24.7751 31.3155 25.8466 31.5179 27.049 31.5179C27.918 31.5179 28.543 31.3393 28.9239 30.9822C29.3168 30.6251 29.5131 30.1013 29.5131 29.4108V28.893C29.1679 29.1906 28.7393 29.4227 28.2274 29.5894C27.7274 29.7561 27.1918 29.8394 26.6203 29.8394C25.7156 29.8394 24.9181 29.6489 24.2276 29.268C23.5372 28.887 22.9954 28.3513 22.6026 27.6609C22.2216 26.9704 22.0312 26.1788 22.0312 25.2859C22.0312 24.3812 22.2216 23.5836 22.6026 22.8932C22.9835 22.2027 23.5192 21.6729 24.2097 21.3039C24.9001 20.923 25.6919 20.7325 26.5847 20.7325C27.8109 20.7325 28.8227 21.1075 29.6203 21.8575V21.0003H32.656V28.9823C32.656 30.4703 32.1976 31.6251 31.281 32.4465C30.3763 33.2679 28.9656 33.6786 27.049 33.6786ZM27.406 27.4109C27.8941 27.4109 28.3287 27.2859 28.7096 27.0359C29.0906 26.7859 29.3583 26.4526 29.5131 26.0359V24.536C29.3464 24.1193 29.0726 23.7919 28.6917 23.5538C28.3107 23.3039 27.8822 23.1789 27.406 23.1789C26.7632 23.1789 26.2454 23.3693 25.8526 23.7503C25.4597 24.1193 25.2633 24.6252 25.2633 25.2681C25.2633 25.9228 25.4597 26.4466 25.8526 26.8395C26.2454 27.2204 26.7632 27.4109 27.406 27.4109Z" fill="#3D3A2C"/>
<path d="M38.7387 29.8394C37.6792 29.8394 36.7507 29.6489 35.9531 29.268C35.1555 28.8751 34.5364 28.3394 34.096 27.6609C33.6674 26.9704 33.4531 26.1788 33.4531 25.2859C33.4531 24.3931 33.6674 23.6074 34.096 22.9289C34.5364 22.2384 35.1555 21.7027 35.9531 21.3218C36.7507 20.9289 37.6792 20.7325 38.7387 20.7325C39.7982 20.7325 40.7267 20.9289 41.5243 21.3218C42.3219 21.7027 42.935 22.2384 43.3636 22.9289C43.804 23.6074 44.0243 24.3931 44.0243 25.2859C44.0243 26.1788 43.804 26.9704 43.3636 27.6609C42.935 28.3394 42.3219 28.8751 41.5243 29.268C40.7267 29.6489 39.7982 29.8394 38.7387 29.8394ZM38.7387 27.393C39.3696 27.393 39.8696 27.2085 40.2387 26.8395C40.6196 26.4585 40.8101 25.9407 40.8101 25.2859C40.8101 24.6312 40.6196 24.1193 40.2387 23.7503C39.8696 23.3693 39.3696 23.1789 38.7387 23.1789C38.1078 23.1789 37.6018 23.3693 37.2209 23.7503C36.8518 24.1193 36.6673 24.6312 36.6673 25.2859C36.6673 25.9407 36.8518 26.4585 37.2209 26.8395C37.6018 27.2085 38.1078 27.393 38.7387 27.393Z" fill="#3D3A2C"/>
<path d="M94.4316 17.0898H97.5926V29.5716H94.4316V17.0898Z" fill="#3D3A2C"/>
<path d="M99.1934 21.0003H102.229V21.8575C103.026 21.1075 104.038 20.7325 105.264 20.7325C106.157 20.7325 106.949 20.923 107.639 21.3039C108.33 21.6729 108.865 22.2027 109.246 22.8932C109.627 23.5717 109.818 24.3634 109.818 25.2681C109.818 26.1609 109.627 26.9585 109.246 27.6609C108.865 28.3513 108.33 28.887 107.639 29.268C106.961 29.6489 106.169 29.8394 105.264 29.8394C104.693 29.8394 104.145 29.7501 103.622 29.5715C103.11 29.4049 102.681 29.1727 102.336 28.8751V33.4821H99.1934V21.0003ZM104.443 27.393C105.086 27.393 105.604 27.2026 105.996 26.8216C106.389 26.4407 106.586 25.9228 106.586 25.2681C106.586 24.6133 106.389 24.1015 105.996 23.7324C105.604 23.3515 105.086 23.161 104.443 23.161C103.967 23.161 103.538 23.286 103.157 23.536C102.776 23.7741 102.503 24.1015 102.336 24.5181V26.0359C102.503 26.4526 102.776 26.7859 103.157 27.0359C103.538 27.274 103.967 27.393 104.443 27.393Z" fill="#3D3A2C"/>
<path d="M114.503 29.8394C113.813 29.8394 113.093 29.768 112.343 29.6251C111.593 29.4942 110.997 29.3037 110.557 29.0537V26.7502C111.045 27.0359 111.628 27.274 112.307 27.4645C112.997 27.643 113.628 27.7323 114.2 27.7323C114.616 27.7323 114.92 27.7025 115.11 27.643C115.301 27.5835 115.396 27.4645 115.396 27.2859C115.396 27.143 115.331 27.0299 115.2 26.9466C115.081 26.8514 114.854 26.7561 114.521 26.6609C114.2 26.5538 113.825 26.4407 113.396 26.3216C112.67 26.1073 112.099 25.8871 111.682 25.6609C111.265 25.4347 110.956 25.149 110.753 24.8038C110.551 24.4586 110.45 24.0241 110.45 23.5003C110.45 22.5717 110.813 21.8813 111.539 21.4289C112.277 20.9646 113.283 20.7325 114.557 20.7325C115.176 20.7325 115.825 20.798 116.503 20.9289C117.194 21.0599 117.711 21.2325 118.057 21.4468V23.7146C117.7 23.4765 117.223 23.28 116.628 23.1253C116.045 22.9705 115.497 22.8932 114.985 22.8932C114.581 22.8932 114.265 22.9348 114.039 23.0181C113.813 23.0896 113.7 23.2205 113.7 23.411C113.7 23.5896 113.813 23.7265 114.039 23.8217C114.265 23.9169 114.67 24.036 115.253 24.1788C115.634 24.2741 115.795 24.3157 115.735 24.3038C116.497 24.5062 117.086 24.7324 117.503 24.9824C117.92 25.2324 118.211 25.53 118.378 25.8752C118.557 26.2085 118.646 26.6371 118.646 27.1609C118.646 27.9823 118.289 28.637 117.575 29.1251C116.872 29.6013 115.848 29.8394 114.503 29.8394Z" fill="#3D3A2C"/>
<path d="M123.338 29.8395C122.16 29.8395 121.273 29.5121 120.678 28.8574C120.095 28.2026 119.803 27.3396 119.803 26.2682V21.0004H122.946V25.911C122.946 26.8991 123.392 27.3931 124.285 27.3931C124.69 27.3931 125.059 27.2979 125.392 27.1074C125.725 26.9169 125.999 26.6372 126.213 26.2682V21.0004H129.356V29.5716H126.321V28.6431C125.952 29.0359 125.505 29.3335 124.981 29.5359C124.458 29.7383 123.91 29.8395 123.338 29.8395Z" fill="#3D3A2C"/>
<path d="M130.965 21.0003H133.876V21.9289C134.233 21.548 134.644 21.2563 135.108 21.0539C135.572 20.8396 136.066 20.7325 136.59 20.7325C137.233 20.7325 137.745 20.8277 138.126 21.0182C138.519 21.2087 138.834 21.4944 139.072 21.8753C139.429 21.5182 139.864 21.2384 140.376 21.0361C140.888 20.8337 141.406 20.7325 141.929 20.7325C143.06 20.7325 143.864 21.0242 144.34 21.6075C144.816 22.1789 145.054 23.0062 145.054 24.0895V29.5715H142.054V24.536C142.054 24.0598 141.965 23.7146 141.786 23.5003C141.608 23.286 141.31 23.1789 140.894 23.1789C140.358 23.1789 139.923 23.3693 139.59 23.7503C139.602 23.9526 139.608 24.2622 139.608 24.6788V29.5715H136.608V24.411C136.608 23.9705 136.531 23.655 136.376 23.4646C136.221 23.2741 135.947 23.1789 135.555 23.1789C134.947 23.1789 134.424 23.5181 133.983 24.1967V29.5715H130.965V21.0003Z" fill="#3D3A2C"/>
<path d="M635.23 15.39H637.23V29.31H643.23V31.31H635.23V15.39ZM649.46 15.39C650.647 15.39 651.807 15.7419 652.794 16.4012C653.781 17.0605 654.55 17.9975 655.004 19.0939C655.458 20.1903 655.577 21.3967 655.345 22.5605C655.114 23.7244 654.542 24.7935 653.703 25.6326C652.864 26.4718 651.795 27.0432 650.631 27.2747C649.467 27.5062 648.261 27.3874 647.164 26.9333C646.068 26.4791 645.131 25.7101 644.472 24.7234C643.812 23.7367 643.46 22.5767 643.46 21.39C643.46 20.6021 643.616 19.8218 643.917 19.0939C644.219 18.3659 644.661 17.7045 645.218 17.1474C645.775 16.5902 646.436 16.1482 647.164 15.8467C647.892 15.5452 648.673 15.39 649.46 15.39ZM649.46 25.39C650.252 25.39 651.025 25.1554 651.683 24.7159C652.341 24.2763 652.853 23.6516 653.156 22.9207C653.459 22.1898 653.538 21.3856 653.384 20.6096C653.229 19.8337 652.848 19.121 652.289 18.5616C651.729 18.0022 651.017 17.6212 650.241 17.4669C649.465 17.3125 648.661 17.3917 647.93 17.6945C647.199 17.9972 646.574 18.5099 646.135 19.1677C645.695 19.8255 645.46 20.5989 645.46 21.39C645.466 22.4474 645.889 23.4597 646.639 24.2055C647.389 24.9513 648.403 25.37 649.46 25.37V25.39ZM645.46 29.33H653.46V31.33H645.46V29.33ZM671.06 31.33H669.06V29.9C667.771 30.8028 666.235 31.288 664.66 31.29C663.318 31.299 661.995 30.97 660.813 30.3333C659.631 29.6965 658.628 28.7726 657.897 27.6466C657.166 26.5206 656.73 25.2287 656.629 23.8899C656.529 22.5512 656.767 21.2086 657.321 19.986C657.876 18.7633 658.729 17.6998 659.802 16.8936C660.876 16.0873 662.135 15.5641 663.464 15.3723C664.792 15.1804 666.148 15.3261 667.406 15.7958C668.663 16.2655 669.783 17.0441 670.66 18.06L669.19 19.37C668.523 18.6236 667.679 18.0562 666.736 17.7195C665.793 17.3827 664.781 17.2873 663.791 17.442C662.802 17.5967 661.867 17.9966 661.072 18.6051C660.277 19.2137 659.646 20.0115 659.239 20.9261C658.831 21.8406 658.658 22.8426 658.737 23.8409C658.815 24.8392 659.143 25.8019 659.689 26.6413C660.235 27.4807 660.982 28.1702 661.863 28.6468C662.743 29.1234 663.729 29.372 664.73 29.37C665.561 29.3717 666.383 29.1939 667.139 28.8487C667.895 28.5035 668.567 27.9991 669.11 27.37H663.71V25.37H671.08L671.06 31.33ZM678.42 15.43C679.607 15.43 680.767 15.7819 681.754 16.4412C682.741 17.1005 683.51 18.0375 683.964 19.1339C684.418 20.2303 684.537 21.4367 684.305 22.6005C684.074 23.7644 683.502 24.8335 682.663 25.6726C681.824 26.5118 680.755 27.0832 679.591 27.3147C678.427 27.5462 677.221 27.4274 676.124 26.9733C675.028 26.5191 674.091 25.7501 673.432 24.7634C672.772 23.7767 672.42 22.6167 672.42 21.43C672.415 20.637 672.567 19.8509 672.868 19.117C673.168 18.3831 673.611 17.716 674.171 17.1544C674.73 16.5927 675.396 16.1476 676.129 15.8447C676.862 15.5419 677.647 15.3873 678.44 15.39L678.42 15.43ZM678.42 25.43C679.212 25.43 679.985 25.1954 680.643 24.7559C681.301 24.3163 681.813 23.6916 682.116 22.9607C682.419 22.2298 682.498 21.4256 682.344 20.6496C682.189 19.8737 681.808 19.161 681.249 18.6016C680.689 18.0422 679.977 17.6612 679.201 17.5069C678.425 17.3525 677.621 17.4317 676.89 17.7345C676.159 18.0372 675.534 18.5499 675.095 19.2077C674.655 19.8655 674.42 20.6389 674.42 21.43C674.436 22.4839 674.867 23.489 675.62 24.2268C676.373 24.9645 677.386 25.3754 678.44 25.37L678.42 25.43ZM674.42 29.37H682.42V31.37H674.42V29.37ZM686.55 15.39H688.55V31.29H686.55V15.39ZM691.32 15.39H693.32C693.423 15.3791 693.527 15.3791 693.63 15.39C694.468 15.2991 695.315 15.3857 696.117 15.644C696.919 15.9024 697.658 16.3267 698.285 16.8894C698.912 17.4521 699.413 18.1406 699.757 18.91C700.1 19.6794 700.278 20.5125 700.278 21.355C700.278 22.1975 700.1 23.0306 699.757 23.8C699.413 24.5694 698.912 25.2579 698.285 25.8206C697.658 26.3833 696.919 26.8076 696.117 27.066C695.315 27.3243 694.468 27.4109 693.63 27.32H693.32V31.32H691.32V15.39ZM693.32 17.39V25.3H693.63C694.195 25.3752 694.77 25.3289 695.315 25.164C695.861 24.9992 696.365 24.7197 696.794 24.3443C697.222 23.9689 697.566 23.5062 697.801 22.9872C698.037 22.4682 698.158 21.9049 698.158 21.335C698.158 20.7651 698.037 20.2018 697.801 19.6828C697.566 19.1638 697.222 18.7011 696.794 18.3257C696.365 17.9502 695.861 17.6708 695.315 17.5059C694.77 17.3411 694.195 17.2948 693.63 17.37C693.522 17.3813 693.414 17.4048 693.31 17.44L693.32 17.39ZM707.73 16.54L706.25 17.71C705.995 17.4432 705.669 17.2548 705.31 17.167C704.952 17.0792 704.575 17.0956 704.226 17.2143C703.876 17.3329 703.567 17.5489 703.336 17.8369C703.105 18.1249 702.961 18.4729 702.92 18.84V19C702.92 19.88 703.53 20.47 704.72 20.55C709.3 20.83 711.4 22.98 711.4 25.82V26C711.282 27.124 710.844 28.1904 710.137 29.0724C709.43 29.9544 708.485 30.6147 707.413 30.975C706.342 31.3352 705.19 31.3802 704.094 31.1045C702.998 30.8289 702.004 30.2442 701.23 29.42L702.76 28.24C703.117 28.6217 703.551 28.9213 704.035 29.1182C704.518 29.315 705.039 29.4044 705.56 29.38C706.524 29.4308 707.469 29.1075 708.2 28.4776C708.93 27.8478 709.389 26.9601 709.48 26V25.86C709.48 23.19 706.86 22.7 704.59 22.48C702.49 22.28 700.98 20.97 700.98 19.08V19C701.054 18.016 701.504 17.098 702.235 16.4356C702.966 15.7731 703.924 15.4167 704.91 15.44C705.433 15.4246 705.953 15.5189 706.437 15.717C706.921 15.9151 707.359 16.2125 707.72 16.59L707.73 16.54ZM719.23 29.26C721.72 29.26 723.69 26.57 723.69 23.26V15.26H725.69V23.26C725.69 27.66 722.81 31.21 719.27 31.21C715.73 31.21 712.85 27.66 712.85 23.26V15.26H714.85V23.26C714.77 26.62 716.74 29.31 719.22 29.31L719.23 29.26ZM741.04 31.26H739.04V21.36L734.43 27.36L729.82 21.36V31.29H727.82V15.39L734.42 24.08L741.02 15.39L741.04 31.26Z" fill="#394149"/>
<path d="M625.63 13.0001C625.63 11.5573 625.057 10.1736 624.037 9.1534C623.017 8.1332 621.633 7.56006 620.19 7.56006C618.747 7.56006 617.364 8.1332 616.343 9.1534C615.323 10.1736 614.75 11.5573 614.75 13.0001V29.4501L619.23 32.6601V40.4801H621.15V32.6601L625.63 29.4501V13.0001ZM623.71 22.2001L621.15 24.7601V22.3601L623.71 19.8001V22.2001ZM616.71 19.8001L619.27 22.3601V24.7601L616.71 22.2001V19.8001ZM623.71 17.0801L620.19 20.6001L616.67 17.0001V14.6001L620.19 18.1201L623.71 14.6001V17.0801ZM620.19 9.48006C620.964 9.48348 621.716 9.74059 622.33 10.212C622.944 10.6834 623.387 11.3431 623.59 12.0901L620.19 15.4801L616.79 12.0901C616.986 11.3357 617.425 10.667 618.04 10.1879C618.655 9.70872 619.411 9.44585 620.19 9.44005V9.48006ZM616.67 28.4801V24.8801L619.23 27.4401V30.3001L616.67 28.4801ZM621.15 30.3101V27.4401L623.71 24.8801V28.4701L621.15 30.3101Z" fill="#394149"/>
<path d="M511.867 24C511.867 36.4264 501.794 46.5 489.367 46.5C476.941 46.5 466.867 36.4264 466.867 24C466.867 11.5736 476.941 1.5 489.367 1.5C501.794 1.5 511.867 11.5736 511.867 24Z" fill="#68DBFF"/>
<path d="M536.132 24C536.132 36.4264 526.157 46.5 513.853 46.5C501.548 46.5 491.573 36.4264 491.573 24C491.573 11.5736 501.548 1.5 513.853 1.5C526.157 1.5 536.132 11.5736 536.132 24Z" fill="#FF7917"/>
<path d="M501.67 42.8416C507.811 38.8239 511.867 31.8858 511.867 24C511.867 16.1144 507.811 9.17617 501.67 5.15857C495.59 9.17617 491.573 16.1144 491.573 24C491.573 31.8858 495.59 38.8239 501.67 42.8416Z" fill="#5D2C02"/>
<g clip-path="url(#clip1_110_212)">
<path d="M906.861 41.225C907.62 41.225 908.069 40.65 908.069 39.751C908.069 38.819 907.587 38.277 906.877 38.277C906.471 38.277 906.189 38.457 905.978 38.743H905.968V37.27H905.528V41.143H905.968V40.775H905.978C906.206 41.089 906.482 41.225 906.861 41.225ZM906.829 40.856C906.233 40.856 905.94 40.385 905.94 39.756C905.94 39.15 906.222 38.651 906.834 38.651C907.365 38.651 907.62 39.128 907.62 39.756C907.62 40.39 907.365 40.856 906.829 40.856ZM908.812 42.07C909.153 42.07 909.37 41.95 909.597 41.37L910.795 38.342H910.329L909.689 40.087C909.603 40.32 909.505 40.634 909.505 40.634H909.495C909.495 40.634 909.391 40.32 909.305 40.087L908.644 38.342H908.167L909.261 41.062L909.153 41.338C909.045 41.609 908.92 41.68 908.736 41.68C908.634 41.6852 908.531 41.6646 908.438 41.62H908.416V42.01C908.536 42.059 908.644 42.07 908.812 42.07ZM911.918 41.143H912.655V37.27H911.918V41.143ZM914.457 41.225C915.318 41.225 915.909 40.585 915.909 39.756C915.909 38.927 915.319 38.288 914.457 38.288C913.596 38.288 913.005 38.928 913.005 39.756C913.005 40.586 913.595 41.225 914.457 41.225ZM914.457 40.661C914.002 40.661 913.753 40.298 913.753 39.756C913.753 39.215 914.002 38.846 914.457 38.846C914.907 38.846 915.161 39.215 915.161 39.756C915.161 40.298 914.907 40.661 914.457 40.661ZM917.476 42.091C917.888 42.091 918.245 41.994 918.478 41.777C918.684 41.587 918.809 41.322 918.809 40.932V38.364H918.099V38.657H918.088C917.92 38.424 917.666 38.288 917.318 38.288C916.615 38.288 916.116 38.819 916.116 39.648C916.116 40.488 916.723 40.975 917.341 40.975C917.693 40.975 917.904 40.835 918.066 40.65H918.083V40.954C918.083 41.333 917.883 41.534 917.465 41.534C917.124 41.534 916.967 41.398 916.907 41.224H916.176C916.251 41.766 916.717 42.091 917.476 42.091ZM917.466 40.385C917.086 40.385 916.836 40.109 916.836 39.637C916.836 39.171 917.086 38.879 917.46 38.879C917.904 38.879 918.121 39.225 918.121 39.632C918.121 40.044 917.931 40.385 917.465 40.385H917.466ZM920.6 41.225C921.461 41.225 922.052 40.585 922.052 39.756C922.052 38.927 921.461 38.288 920.6 38.288C919.738 38.288 919.148 38.928 919.148 39.756C919.148 40.586 919.738 41.225 920.6 41.225ZM920.6 40.661C920.145 40.661 919.895 40.298 919.895 39.756C919.895 39.215 920.145 38.846 920.6 38.846C921.049 38.846 921.304 39.215 921.304 39.756C921.304 40.298 921.049 40.661 920.6 40.661ZM922.394 41.143H923.131V38.364H922.394V41.144V41.143ZM922.394 37.931H923.131V37.27H922.394V37.93V37.931ZM923.606 42.053H924.343V40.83H924.353C924.511 41.069 924.765 41.226 925.155 41.226C925.87 41.226 926.358 40.656 926.358 39.757C926.358 38.89 925.887 38.289 925.15 38.289C924.99 38.2864 924.831 38.3237 924.688 38.3975C924.545 38.4713 924.423 38.5794 924.332 38.712H924.316V38.365H923.606V42.055V42.053ZM924.998 40.613C924.559 40.613 924.326 40.282 924.326 39.778C924.326 39.28 924.511 38.884 924.971 38.884C925.426 38.884 925.61 39.252 925.61 39.778C925.61 40.304 925.372 40.612 924.998 40.612V40.613ZM927.828 41.225C928.521 41.225 928.998 40.889 928.998 40.331C928.998 39.681 928.483 39.551 928.017 39.453C927.622 39.372 927.254 39.35 927.254 39.112C927.254 38.912 927.443 38.802 927.73 38.802C928.045 38.802 928.234 38.912 928.267 39.209H928.933C928.879 38.651 928.473 38.289 927.741 38.289C927.107 38.289 926.609 38.575 926.609 39.177C926.609 39.783 927.096 39.919 927.595 40.017C927.974 40.092 928.326 40.119 928.326 40.385C928.326 40.58 928.142 40.705 927.817 40.705C927.487 40.705 927.259 40.564 927.21 40.244H926.528C926.571 40.834 927.021 41.224 927.828 41.224V41.225ZM931.796 41.143V38.364H931.059V39.968C931.059 40.336 930.847 40.596 930.501 40.596C930.187 40.596 930.04 40.417 930.04 40.092V38.364H929.309V40.217C929.309 40.824 929.656 41.219 930.273 41.219C930.663 41.219 930.88 41.073 931.07 40.819H931.086V41.143H931.796ZM932.272 41.143H933.009V39.53C933.009 39.161 933.209 38.923 933.507 38.923C933.778 38.923 933.935 39.086 933.935 39.4V41.144H934.672V39.53C934.672 39.161 934.862 38.923 935.171 38.923C935.442 38.923 935.599 39.086 935.599 39.4V41.144H936.336V39.275C936.336 38.668 936.005 38.289 935.42 38.289C935.068 38.289 934.775 38.473 934.586 38.777H934.575C934.509 38.6294 934.4 38.5046 934.263 38.4178C934.126 38.3311 933.967 38.2863 933.805 38.289C933.643 38.2849 933.482 38.3245 933.34 38.4037C933.198 38.4828 933.08 38.5987 932.998 38.739H932.982V38.365H932.272V41.145V41.143Z" fill="#E5708C"/>
<path d="M936.481 6.14906C936.481 4.96606 937.44 4.00606 938.623 4.00606H940.052C940.62 4.00606 941.165 4.23184 941.567 4.63373C941.969 5.03562 942.195 5.5807 942.195 6.14906C942.195 6.71742 941.969 7.2625 941.567 7.66439C941.165 8.06628 940.62 8.29206 940.052 8.29206H938.623C938.341 8.29206 938.063 8.23662 937.803 8.12891C937.543 8.02121 937.307 7.86334 937.108 7.66433C936.909 7.46532 936.751 7.22907 936.643 6.96908C936.536 6.70908 936.48 6.43044 936.481 6.14906ZM876.49 18.2901C876.49 26.1781 870.096 32.5731 862.207 32.5731C854.319 32.5731 847.924 26.1781 847.924 18.2901C847.924 10.4001 854.319 4.00706 862.207 4.00706C870.096 4.00706 876.49 10.4001 876.49 18.2901ZM845.138 18.2191C845.928 18.2191 846.574 18.8591 846.495 19.6451C846.225 22.3349 845.197 24.8929 843.531 27.0217C841.865 29.1505 839.628 30.7628 837.082 31.6712C834.536 32.5796 831.784 32.7467 829.147 32.1532C826.51 31.5596 824.095 30.2298 822.183 28.3183C820.272 26.4067 818.942 23.9919 818.349 21.3546C817.755 18.7172 817.922 15.9655 818.83 13.4194C819.739 10.8732 821.351 8.63712 823.48 6.97097C825.609 5.30482 828.167 4.27704 830.857 4.00706C831.642 3.92706 832.283 4.57506 832.283 5.36306V16.7901C832.283 17.5801 832.923 18.2191 833.712 18.2191H845.138ZM896.487 35.4301C897.623 35.4301 898.713 35.8815 899.517 36.6851C900.32 37.4887 900.772 38.5786 900.772 39.7151C900.772 40.8515 900.32 41.9414 899.517 42.745C898.713 43.5486 897.623 44.0001 896.487 44.0001H889.346C888.209 44.0001 887.119 43.5486 886.316 42.745C885.512 41.9414 885.061 40.8515 885.061 39.7151C885.061 38.5786 885.512 37.4887 886.316 36.6851C887.119 35.8815 888.209 35.4301 889.346 35.4301H896.487ZM892.202 32.5731C900.091 32.5731 906.486 26.1781 906.486 18.2901C906.489 15.867 905.873 13.4833 904.697 11.3651L907.057 9.00506C907.328 8.73309 907.544 8.41025 907.691 8.05495C907.838 7.69966 907.914 7.31888 907.914 6.93435C907.914 6.54983 907.838 6.16908 907.691 5.81386C907.543 5.45864 907.328 5.1359 907.056 4.86406C906.784 4.59222 906.461 4.37662 906.105 4.22955C905.75 4.08248 905.369 4.00684 904.985 4.00693C904.6 4.00702 904.22 4.08285 903.864 4.23009C903.509 4.37733 903.186 4.59309 902.915 4.86506L900.855 6.92506C898.369 5.02697 895.328 4.00103 892.201 4.00606C884.314 4.00706 877.92 10.4001 877.92 18.2901C877.92 26.1781 884.315 32.5731 892.203 32.5731H892.202ZM936.481 18.2901C936.481 26.1781 930.086 32.5731 922.197 32.5731C914.309 32.5731 907.914 26.1781 907.914 18.2901C907.914 10.4001 914.309 4.00706 922.197 4.00706C930.086 4.00706 936.481 10.4011 936.481 18.2901Z" fill="url(#paint0_linear_110_212)"/>
</g>
<defs>
<linearGradient id="paint0_linear_110_212" x1="818" y1="20.0001" x2="937" y2="20.0001" gradientUnits="userSpaceOnUse">
<stop stop-color="#64C2DB"/>
<stop offset="0.307" stop-color="#7476ED"/>
<stop offset="0.604" stop-color="#C994DF"/>
<stop offset="1" stop-color="#E56F8C"/>
</linearGradient>
<clipPath id="clip0_110_212">
<rect width="170" height="41" fill="white" transform="translate(221 3)"/>
</clipPath>
<clipPath id="clip1_110_212">
<rect width="125" height="40" fill="white" transform="translate(818 4)"/>
</clipPath>
</defs>
</svg>
